<?xml version="1.0" ?><svg height="512" id="svg2" version="1.1" width="512" xmlns="http://www.w3.org/2000/svg" xmlns:cc="http://creativecommons.org/ns#" xmlns:dc="http://purl.org/dc/elements/1.1/" xmlns:inkscape="http://www.inkscape.org/namespaces/inkscape" xmlns:rdf="http://www.w3.org/1999/02/22-rdf-syntax-ns#" xmlns:sodipodi="http://sodipodi.sourceforge.net/DTD/sodipodi-0.dtd" xmlns:svg="http://www.w3.org/2000/svg"><defs id="defs4"/><g id="layer1" transform="translate(0,-540.36218)"><path d="m 75.517117,640.26191 c -8.0206,0 -14.4482,6.5377 -14.4482,14.5581 l 0,62.1198 c 0,8.0206 6.4276,14.4482 14.4482,14.4482 l 80.235003,0 c 8.0205,0 14.5215,-6.4276 14.5215,-14.4482 l 0,-62.1198 c 0,-8.0204 -6.501,-14.5581 -14.5215,-14.5581 l -80.235003,0 z m 144.518403,0 c -8.0205,0 -14.4482,6.5377 -14.4482,14.5581 l 0,62.1198 c 0,8.0206 6.4277,14.4482 14.4482,14.4482 l 80.2351,0 c 8.0204,0 14.5215,-6.4276 14.5215,-14.4482 l 0,-62.1198 c 0,-8.0204 -6.5011,-14.5581 -14.5215,-14.5581 l -80.2351,0 z m 132.7105,0 c -8.0205,0 -14.4482,6.5377 -14.4482,14.5581 l 0,62.1198 c 0,8.0206 6.4277,14.4482 14.4482,14.4482 l 80.235,0 c 8.0205,0 14.5215,-6.4276 14.5215,-14.4482 l 0,-62.1198 c 0,-8.0204 -6.501,-14.5581 -14.5215,-14.5581 l -80.235,0 z M 75.517117,755.92061 c -8.0206,0 -14.4482,6.5011 -14.4482,14.52148 l 0,62.1564 c 0,8.0206 6.4276,14.4482 14.4482,14.4482 l 80.235003,0 c 8.0205,0 14.5215,-6.4276 14.5215,-14.4482 l 0,-62.1564 c 0,-8.02038 -6.501,-14.52148 -14.5215,-14.52148 l -80.235003,0 z m 144.518403,0 c -8.0205,0 -14.4482,6.5011 -14.4482,14.52148 l 0,62.1564 c 0,8.0206 6.4277,14.4482 14.4482,14.4482 l 80.2351,0 c 8.0204,0 14.5215,-6.4276 14.5215,-14.4482 l 0,-62.1564 c 0,-8.02038 -6.5011,-14.52148 -14.5215,-14.52148 l -80.2351,0 z m 132.7105,0 c -8.0205,0 -14.4482,6.5011 -14.4482,14.52148 l 0,62.1564 c 0,8.0206 6.4277,14.4482 14.4482,14.4482 l 80.235,0 c 8.0205,0 14.5215,-6.4276 14.5215,-14.4482 l 0,-62.1564 c 0,-8.02038 -6.501,-14.52148 -14.5215,-14.52148 l -80.235,0 z M 75.517117,870.44249 c -8.0206,0 -14.4482,6.5378 -14.4482,14.5583 l 0,62.1198 c 0,8.0204 6.4276,14.4847 14.4482,14.4847 l 80.235003,0 c 8.0205,0 14.5215,-6.4643 14.5215,-14.4847 l 0,-62.1198 c 0,-8.0205 -6.501,-14.5583 -14.5215,-14.5583 l -80.235003,0 z m 144.518403,0 c -8.0205,0 -14.4482,6.5378 -14.4482,14.5583 l 0,62.1198 c 0,8.0204 6.4277,14.4847 14.4482,14.4847 l 80.2351,0 c 8.0204,0 14.5215,-6.4643 14.5215,-14.4847 l 0,-62.1198 c 0,-8.0205 -6.5011,-14.5583 -14.5215,-14.5583 l -80.2351,0 z m 132.7105,0 c -8.0205,0 -14.4482,6.5378 -14.4482,14.5583 l 0,62.1198 c 0,8.0204 6.4277,14.4847 14.4482,14.4847 l 80.235,0 c 8.0205,0 14.5215,-6.4643 14.5215,-14.4847 l 0,-62.1198 c 0,-8.0205 -6.501,-14.5583 -14.5215,-14.5583 l -80.235,0 z" id="rect3044-174-4-7-5-0-4-2" style="fill:#fff;fill-opacity:1;stroke:none"/></g></svg>